<?xml version="1.0" encoding="UTF-8" standalone="no"?>
<!-- Created with Inkscape (http://www.inkscape.org/) -->

<svg
   version="1.1"
   id="svg1"
   width="512"
   height="512"
   viewBox="0 0 512 512"
   sodipodi:docname="logo.svg"
   inkscape:version="1.4.2 (f4327f4, 2025-05-13)"
   xmlns:inkscape="http://www.inkscape.org/namespaces/inkscape"
   xmlns:sodipodi="http://sodipodi.sourceforge.net/DTD/sodipodi-0.dtd"
   xmlns="http://www.w3.org/2000/svg"
   xmlns:svg="http://www.w3.org/2000/svg">
  <defs
     id="defs1" />
  <sodipodi:namedview
     id="namedview1"
     pagecolor="#505050"
     bordercolor="#eeeeee"
     borderopacity="1"
     inkscape:showpageshadow="0"
     inkscape:pageopacity="0"
     inkscape:pagecheckerboard="0"
     inkscape:deskcolor="#505050"
     inkscape:zoom="1.5097656"
     inkscape:cx="222.21992"
     inkscape:cy="203.01164"
     inkscape:window-width="1920"
     inkscape:window-height="991"
     inkscape:window-x="-9"
     inkscape:window-y="-9"
     inkscape:window-maximized="1"
     inkscape:current-layer="g1" />
  <g
     inkscape:groupmode="layer"
     inkscape:label="Image"
     id="g1">
    <rect
       style="fill:#ffffff;fill-opacity:1;stroke-width:1.18922"
       id="rect1"
       width="410.65976"
       height="315.94308"
       x="60.274258"
       y="86.768433" />
    <path
       style="fill:#8e00ff;fill-opacity:1"
       d="m 55.385565,510.25665 c -7.63256,-1.59834 -18.98659,-6.54573 -25.83403,-11.25689 C 14.946085,488.95094 3.6580152,470.7689 0.92219515,452.88557 c -0.84163,-5.50149 -1.06538,-59.1949 -0.83969,-201.5 C 0.37292515,68.267446 0.49074515,57.049011 2.1831052,51.385564 9.2991252,27.571835 27.541865,9.3782815 51.555865,2.1459215 57.012975,0.50238748 69.784575,0.37050848 251.38557,0.08249948 c 142.3051,-0.225689 195.99851,-0.0019 201.5,0.83969 28.50799,4.36120502 51.50468,26.45969152 57.41368,55.17121652 1.41617,6.88109 1.58632,28.31112 1.58632,199.792164 0,171.48104 -0.17015,192.91107 -1.58632,199.79216 -5.71898,27.78822 -26.8333,48.90254 -54.62152,54.62152 -6.88999,1.418 -28.16431,1.57767 -200.5,1.50479 C 89.874425,511.73414 61.387485,511.51351 55.385565,510.25665 Z M 168.08635,373.76963 c 17.52816,-3.69117 31.26977,-17.71061 45.02239,-45.93265 20.75912,-42.60022 29.74403,-60.68047 30.92307,-62.22616 1.16143,-1.5226 1.30795,-0.3986 1.03135,7.91147 -0.85397,25.65608 5.81361,47.57279 18.23008,59.92321 10.18526,10.13109 20.90252,13.82286 33.73817,11.62179 9.27996,-1.59133 17.24099,-5.89837 24.53148,-13.27189 7.59763,-7.68415 10.85815,-13.16821 26.70094,-44.90983 19.51395,-39.09694 26.71593,-51.52616 51.40296,-88.71155 16.13511,-24.30385 18.78659,-32.03873 14.33912,-41.82982 -5.56544,-12.25228 -20.27618,-14.96218 -37.1515,-6.84378 -16.26949,7.82696 -38.15587,27.16716 -56.45259,49.88515 -4.87258,6.05 -9.37871,11.58057 -10.01362,12.29016 -0.87958,0.98304 -0.97515,0.0308 -0.40151,-4 1.31992,-9.2746 0.98759,-29.23097 -0.61573,-36.97478 -3.05716,-14.76566 -10.62512,-25.64535 -21.33001,-30.66402 -4.79134,-2.24628 -6.95402,-2.64022 -14.15538,-2.57842 -13.62128,0.11688 -24.68337,5.09872 -38.08996,17.15392 -15.71532,14.13122 -33.41292,36.08828 -49.08547,60.89937 -4.57851,7.24821 -8.36814,13.10998 -8.4214,13.02617 -0.0533,-0.0838 0.25642,-3.5274 0.68818,-7.6524 1.14405,-10.93038 1.07244,-35.69076 -0.12312,-42.56634 -2.96533,-17.05338 -10.58089,-26.86541 -23.92781,-30.82902 -7.22818,-2.14654 -14.49085,-2.02251 -22.18508,0.37886 -23.6917,7.39417 -34.961165,35.14696 -36.552645,90.0165 -1.29889,44.78157 6.316825,85.77466 20.428295,109.95947 5.06433,8.67944 15.38421,19.03426 22.31431,22.38986 9.12178,4.41682 19.17749,5.63595 29.15548,3.53473 z"
       id="path1" />
  </g>
</svg>
